<?xml version="1.0" standalone="no"?>
<!DOCTYPE svg PUBLIC "-//W3C//DTD SVG 20010904//EN"
 "http://www.w3.org/TR/2001/REC-SVG-20010904/DTD/svg10.dtd">
<svg version="1.0" xmlns="http://www.w3.org/2000/svg"
 width="338.000000pt" height="342.000000pt" viewBox="0 0 338.000000 342.000000"
 preserveAspectRatio="xMidYMid meet">
<metadata>
Created by potrace 1.16, written by Peter Selinger 2001-2019
</metadata>
<g transform="translate(0.000000,342.000000) scale(0.100000,-0.100000)"
fill="#dc3545" stroke="none">
<path d="M1545 3344 c-57 -4 -141 -19 -235 -41 -578 -135 -1057 -615 -1194
-1198 -10 -38 -19 -79 -22 -90 -3 -11 -11 -82 -19 -158 -33 -332 47 -684 223
-977 186 -312 514 -586 827 -691 22 -7 45 -16 50 -20 9 -6 112 -32 225 -58 25
-5 102 -15 172 -22 276 -28 594 34 857 165 176 88 296 177 447 332 399 407
551 987 405 1541 -80 301 -211 531 -427 746 -240 240 -526 390 -864 453 -75
14 -352 25 -445 18z m275 -1005 c58 -33 64 -53 68 -246 l4 -173 147 0 c178 0
238 -14 276 -64 23 -30 25 -42 25 -125 0 -171 -29 -190 -282 -191 l-168 0 0
-154 c0 -188 -4 -209 -47 -252 l-34 -34 -100 0 c-178 0 -191 18 -197 268 l-4
172 -157 0 c-185 0 -219 8 -261 58 -29 35 -30 41 -30 127 0 165 34 188 281
193 l167 4 4 171 c4 190 10 210 73 248 45 28 184 27 235 -2z"/>
</g>
</svg>
