<?xml version="1.0" standalone="no"?>
<!DOCTYPE svg PUBLIC "-//W3C//DTD SVG 20010904//EN"
 "http://www.w3.org/TR/2001/REC-SVG-20010904/DTD/svg10.dtd">
<svg version="1.0" xmlns="http://www.w3.org/2000/svg"
 width="338.000000pt" height="342.000000pt" viewBox="0 0 338.000000 342.000000"
 preserveAspectRatio="xMidYMid meet">
<metadata>
Created by potrace 1.16, written by Peter Selinger 2001-2019
</metadata>
<g transform="translate(0.000000,342.000000) scale(0.100000,-0.100000)"
fill="#dc3545" stroke="none">
<path d="M1545 3344 c-57 -4 -141 -19 -235 -41 -578 -135 -1057 -615 -1194
-1198 -10 -38 -19 -79 -22 -90 -18 -74 -32 -305 -23 -403 37 -427 187 -759
476 -1047 171 -172 386 -311 578 -376 22 -7 45 -16 50 -20 9 -6 112 -32 225
-58 25 -5 102 -15 172 -22 276 -28 594 34 857 165 176 88 296 177 447 332 399
407 551 987 405 1541 -80 301 -211 531 -427 746 -240 240 -526 390 -864 453
-75 14 -352 25 -445 18z m243 -1003 c43 -22 67 -46 81 -82 l10 -27 153 -4
c215 -5 248 -27 248 -163 l0 -65 -590 0 -590 0 0 69 c0 60 3 74 26 100 42 50
59 55 223 61 l155 5 20 39 c41 78 176 112 264 67z m362 -818 c0 -175 -4 -313
-10 -335 -7 -23 -24 -48 -44 -63 l-33 -25 -376 0 -376 0 -34 34 c-25 25 -36
46 -40 81 -9 63 -9 590 0 598 3 4 210 7 460 7 l453 0 0 -297z"/>
</g>
</svg>
