<?xml version="1.0" standalone="no"?>
<!DOCTYPE svg PUBLIC "-//W3C//DTD SVG 20010904//EN"
 "http://www.w3.org/TR/2001/REC-SVG-20010904/DTD/svg10.dtd">
<svg version="1.0" xmlns="http://www.w3.org/2000/svg"
 width="338.000000pt" height="342.000000pt" viewBox="0 0 338.000000 342.000000"
 preserveAspectRatio="xMidYMid meet">
<metadata>
Created by potrace 1.16, written by Peter Selinger 2001-2019
</metadata>
<g transform="translate(0.000000,342.000000) scale(0.100000,-0.100000)"
fill="#dc3545" stroke="none">
<path d="M1545 3324 c-57 -4 -141 -19 -235 -41 -578 -135 -1057 -615 -1194
-1198 -10 -38 -19 -79 -22 -90 -18 -74 -32 -305 -23 -403 37 -427 187 -759
476 -1047 171 -172 386 -311 578 -376 22 -7 45 -16 50 -20 9 -6 112 -32 225
-58 25 -5 102 -15 172 -22 337 -34 719 63 1016 256 283 183 532 490 642 791
121 329 138 661 51 991 -80 301 -211 531 -427 746 -240 240 -526 390 -864 453
-75 14 -352 25 -445 18z m580 -968 c39 -17 64 -50 72 -99 4 -28 0 -46 -20 -79
-27 -46 -449 -461 -475 -466 -15 -4 -182 154 -182 173 0 10 434 437 469 461
36 25 89 29 136 10z m-606 -644 c48 -45 82 -84 79 -92 -5 -16 -102 -38 -167
-39 l-44 -1 7 63 c9 74 26 147 35 147 4 0 44 -35 90 -78z m745 -286 c59 -25
76 -61 76 -166 0 -62 -5 -100 -15 -120 -32 -61 -20 -60 -631 -60 l-556 0 -39
39 -39 39 0 93 c0 106 14 140 72 171 30 16 77 17 566 18 432 0 539 -3 566 -14z"/>
</g>
</svg>
