<?xml version="1.0" standalone="no"?>
<!DOCTYPE svg PUBLIC "-//W3C//DTD SVG 20010904//EN"
 "http://www.w3.org/TR/2001/REC-SVG-20010904/DTD/svg10.dtd">
<svg version="1.0" xmlns="http://www.w3.org/2000/svg"
 width="100.000000pt" height="100.000000pt" viewBox="0 0 1092.000000 1192.000000"
 preserveAspectRatio="xMidYMid meet">
<metadata>
Created by potrace 1.16, written by Peter Selinger 2001-2019
</metadata>
<g transform="translate(0.000000,1192.000000) scale(0.100000,-0.100000)"
fill="#dc3545" stroke="none">
<path d="M5434 11681 c-5 -4 -40 -20 -79 -35 -38 -16 -83 -34 -100 -41 -16 -6
-46 -18 -65 -25 -19 -6 -44 -16 -55 -21 -11 -4 -56 -20 -100 -34 -44 -15 -89
-30 -100 -35 -11 -4 -58 -19 -105 -33 -47 -13 -116 -34 -155 -45 -89 -27 -212
-59 -295 -79 -36 -8 -81 -19 -100 -23 -76 -19 -347 -77 -415 -90 -27 -5 -90
-16 -140 -25 -49 -9 -112 -20 -140 -25 -27 -4 -95 -16 -150 -25 -55 -9 -131
-21 -170 -26 -38 -6 -97 -14 -130 -19 -69 -10 -278 -37 -345 -45 -25 -3 -81
-10 -125 -15 -120 -15 -341 -36 -715 -70 -104 -9 -299 -21 -795 -50 -93 -5
-308 -13 -477 -16 l-308 -7 0 -2101 c1 -1173 5 -2169 10 -2256 17 -280 46
-541 80 -710 5 -25 16 -85 25 -135 21 -114 68 -315 105 -450 5 -16 15 -55 23
-85 9 -30 23 -77 31 -105 50 -155 69 -212 76 -230 5 -11 32 -83 61 -160 29
-77 65 -169 82 -205 16 -36 38 -87 49 -115 11 -27 28 -66 38 -85 10 -19 42
-82 70 -140 63 -127 135 -262 167 -312 13 -21 23 -40 23 -42 0 -13 301 -478
320 -496 3 -3 29 -38 58 -78 29 -40 59 -80 67 -90 8 -9 47 -57 86 -107 232
-293 572 -637 874 -885 55 -45 109 -89 120 -99 11 -9 45 -34 75 -56 30 -22 60
-44 67 -50 31 -25 44 -35 133 -95 52 -36 97 -68 98 -72 2 -5 7 -8 12 -8 8 0
141 -87 167 -110 7 -5 16 -10 22 -10 5 0 11 -3 13 -7 2 -5 273 -188 603 -408
330 -220 605 -404 610 -408 6 -4 66 -45 135 -91 69 -45 268 -178 442 -294 175
-117 324 -215 331 -218 8 -3 27 5 43 18 16 13 67 48 114 78 47 30 92 60 100
67 35 28 544 363 551 363 4 0 9 3 11 8 2 4 111 79 243 167 132 88 244 164 250
168 5 4 66 45 135 91 69 45 190 126 269 179 79 53 147 97 151 97 5 0 10 3 12
8 2 4 104 74 228 157 339 225 564 386 682 487 10 9 37 31 60 50 23 18 57 47
77 65 20 18 59 52 88 75 69 57 431 423 519 523 38 44 71 82 74 85 3 3 35 41
70 85 36 44 67 82 70 85 45 44 370 511 370 531 0 5 5 9 10 9 6 0 10 4 10 9 0
5 23 46 51 92 28 45 63 103 77 128 14 25 34 62 46 81 29 52 188 368 210 420
11 25 34 78 53 118 18 39 33 75 33 78 0 3 7 22 16 42 9 21 20 46 24 57 4 11
15 40 25 65 10 25 21 54 26 65 4 11 20 56 34 100 15 44 30 89 35 100 12 26 66
207 95 320 13 50 30 115 38 145 8 30 22 91 31 135 10 44 22 98 27 120 45 190
94 578 109 860 6 106 10 1048 10 2280 l0 2100 -302 7 c-167 4 -379 12 -473 18
-524 30 -711 42 -810 51 -436 39 -630 58 -705 69 -36 5 -110 14 -165 20 -120
14 -285 36 -375 50 -36 5 -112 17 -170 25 -103 15 -180 28 -270 45 -25 5 -88
16 -140 25 -52 9 -111 21 -130 25 -19 5 -100 22 -180 39 -80 17 -192 42 -250
57 -58 14 -121 29 -140 34 -102 25 -160 40 -200 53 -25 8 -72 22 -105 32 -72
21 -322 102 -350 114 -11 5 -40 16 -65 26 -25 10 -56 22 -70 28 -14 5 -34 13
-45 18 -31 12 -119 51 -126 55 -3 2 -10 0 -15 -5z m176 -1821 c106 -14 247
-38 280 -49 14 -5 45 -14 70 -21 65 -19 236 -89 300 -123 314 -168 600 -459
756 -767 32 -64 74 -162 80 -187 4 -15 10 -32 13 -38 11 -17 28 -76 46 -155 9
-41 20 -93 25 -115 8 -37 22 -166 25 -245 l2 -35 264 -6 c275 -7 284 -8 379
-57 66 -35 154 -129 192 -209 l33 -68 3 -1819 c1 -1193 -1 -1838 -8 -1874 -5
-30 -22 -79 -36 -110 -35 -74 -144 -181 -210 -205 -27 -11 -60 -24 -73 -30
-18 -9 -594 -12 -2305 -12 l-2281 0 -57 23 c-125 50 -218 145 -271 273 l-22
54 -3 1810 c-2 1268 1 1826 8 1862 27 130 122 254 240 311 92 45 144 52 400
52 l227 0 6 108 c11 165 52 360 107 497 108 270 250 481 451 669 91 85 241
195 329 242 30 16 57 32 58 37 2 4 7 7 12 7 5 0 38 13 73 30 57 26 185 73 272
99 37 11 187 38 275 50 95 12 242 13 340 1z"/>
<path d="M5285 9225 c-127 -19 -207 -42 -310 -90 -189 -87 -360 -235 -471
-406 -109 -167 -184 -393 -184 -550 l0 -59 1125 0 1125 0 0 59 c0 163 -67 368
-177 544 -42 67 -148 191 -200 233 -26 21 -50 41 -53 45 -3 3 -39 28 -80 54
-155 99 -302 152 -485 174 -112 14 -175 13 -290 -4z"/>
<path d="M5320 6788 c-74 -31 -149 -73 -180 -101 -45 -40 -110 -130 -110 -150
0 -9 -4 -18 -9 -21 -16 -11 -34 -138 -28 -210 10 -141 91 -274 214 -353 44
-28 52 -38 48 -56 -3 -12 -10 -53 -16 -92 -18 -122 -42 -281 -89 -585 -5 -30
-16 -102 -25 -160 -9 -58 -19 -122 -22 -142 l-6 -38 350 0 351 0 -8 43 c-5 23
-13 76 -20 117 -6 41 -15 100 -20 130 -5 30 -16 105 -25 165 -9 61 -20 133
-25 160 -5 28 -16 102 -25 165 -9 63 -20 134 -26 157 -18 84 -13 107 30 131
51 29 146 126 167 171 43 89 54 136 54 226 0 152 -60 278 -175 364 -44 33 -70
46 -163 82 -31 12 -211 10 -242 -3z"/>
</g>
</svg>
